<?xml version="1.0" standalone="no"?><!DOCTYPE svg PUBLIC "-//W3C//DTD SVG 1.1//EN" "http://www.w3.org/Graphics/SVG/1.1/DTD/svg11.dtd"><svg t="1561283640776" class="icon" viewBox="0 0 1024 1024" version="1.1" xmlns="http://www.w3.org/2000/svg" p-id="12256" xmlns:xlink="http://www.w3.org/1999/xlink" width="200" height="200"><defs><style type="text/css"></style></defs><path d="M1003.6224 515.6864L563.712 75.6736c-27.136-27.136-71.3728-27.136-98.6112 0L25.088 515.6864c-10.4448 10.4448-10.4448 27.4432 0 37.888s27.4432 10.4448 37.888 0L99.328 517.2224v380.416c0 38.4 31.232 69.7344 69.7344 69.7344h686.592c38.5024 0 69.7344-31.232 69.7344-69.7344V513.2288l40.3456 40.3456c5.2224 5.2224 12.0832 7.8848 18.944 7.8848 6.8608 0 13.7216-2.6624 18.944-7.8848 10.4448-10.4448 10.4448-27.4432 0-37.888zM635.6992 913.7152H389.0176v-269.312c0-8.9088 7.168-16.0768 16.0768-16.0768h214.528c8.9088 0 16.0768 7.168 16.0768 16.0768v269.312z m236.032-16.0768c0 8.9088-7.168 16.0768-16.0768 16.0768H689.3568v-269.312c0-38.4-31.232-69.7344-69.7344-69.7344H405.0944c-38.5024 0-69.7344 31.232-69.7344 69.7344v269.2096H169.0624c-8.9088 0-16.0768-7.168-16.0768-16.0768V463.6672L502.9888 113.664c6.2464-6.2464 16.4864-6.2464 22.7328 0l346.0096 346.0096v437.9648z m0 0" p-id="12257"></path></svg>